<svg width="19" height="19" viewBox="0 0 19 19" fill="none" xmlns="http://www.w3.org/2000/svg">
<path d="M9.49783 18.5077C12.018 18.5077 14.4348 17.5324 16.2169 15.7966C17.9989 14.0608 19 11.7065 19 9.25168C18.9991 7.42165 18.4414 5.63294 17.3972 4.11159C16.353 2.59023 14.8693 1.40454 13.1335 0.704333C11.3977 0.00412355 9.48788 -0.179168 7.64522 0.17762C5.80255 0.53441 4.10982 1.41526 2.78093 2.70887C1.00027 4.44453 0 6.79789 0 9.25168C0 11.7055 1.00027 14.0588 2.78093 15.7945C3.6601 16.6578 4.70664 17.3422 5.85974 17.8079C7.01285 18.2737 8.24949 18.5115 9.49783 18.5077ZM3.61831 3.52455C4.39038 2.77241 5.307 2.17576 6.31581 1.76871C7.32462 1.36164 8.40586 1.15212 9.49783 1.15212C10.5897 1.15212 11.671 1.36164 12.6798 1.76871C13.6886 2.17576 14.6052 2.77241 15.3772 3.52455C16.54 4.65725 17.3318 6.10035 17.6525 7.67136C17.9733 9.24239 17.8086 10.8708 17.1793 12.3506C16.5499 13.8304 15.4843 15.0953 14.117 15.9852C12.7496 16.8751 11.1422 17.35 9.49783 17.35C7.8534 17.35 6.24592 16.8751 4.87864 15.9852C3.51135 15.0953 2.44567 13.8304 1.81635 12.3506C1.18703 10.8708 1.02233 9.24239 1.34306 7.67136C1.66381 6.10035 2.45561 4.65725 3.61831 3.52455Z" fill="black"/>
<path d="M9.49782 14.5621C10.2138 14.5628 10.9229 14.4258 11.5844 14.1587C12.2459 13.8916 12.8466 13.4998 13.3521 13.0059C13.4494 12.8953 13.5002 12.7529 13.4945 12.6073C13.4887 12.4617 13.4267 12.3236 13.321 12.2206C13.2152 12.1175 13.0734 12.0572 12.924 12.0515C12.7745 12.046 12.6284 12.0955 12.5147 12.1902C11.9181 12.7706 11.1584 13.1658 10.3314 13.3256C9.50433 13.4855 8.64723 13.4029 7.86835 13.0884C7.08948 12.7739 6.42381 12.2415 5.95549 11.5586C5.48717 10.8756 5.23721 10.0728 5.23721 9.25146C5.23721 8.43016 5.48717 7.6273 5.95549 6.94435C6.42381 6.26139 7.08948 5.72901 7.86835 5.41449C8.64723 5.09996 9.50433 5.01743 10.3314 5.1773C11.1584 5.33718 11.9181 5.73229 12.5147 6.31269C12.6284 6.40747 12.7745 6.45699 12.924 6.45137C13.0734 6.44574 13.2152 6.38539 13.321 6.28236C13.4267 6.17933 13.4887 6.04122 13.4945 5.89563C13.5002 5.75004 13.4494 5.60768 13.3521 5.49701C12.8461 5.00166 12.2445 4.60859 11.582 4.34037C10.9196 4.07216 10.2092 3.93408 9.49185 3.93408C8.77444 3.93408 8.06409 4.07216 7.40162 4.34037C6.73916 4.60859 6.13762 5.00166 5.63157 5.49701C4.8687 6.24041 4.34945 7.1876 4.13958 8.21865C3.92972 9.24969 4.03868 10.3182 4.45267 11.2889C4.86666 12.2595 5.56706 13.0888 6.46518 13.6714C7.36328 14.2541 8.4187 14.5641 9.49782 14.5621Z" fill="black"/>
</svg>
