<svg width="155" height="135" viewBox="0 0 155 135" fill="none" xmlns="http://www.w3.org/2000/svg">
<path d="M155 131.579C155 132.163 154.77 132.746 154.31 133.329C153.85 133.796 153.237 134.029 152.471 134.029C148.179 134.029 143.887 133.971 139.596 133.854C135.457 133.621 131.165 133.504 126.72 133.504H120.513C115.914 133.504 111.316 133.621 106.718 133.854C102.273 133.971 97.8279 134.029 93.3829 134.029C92.7698 134.029 92.3099 133.737 92.0034 133.154C91.8501 132.571 91.7735 132.104 91.7735 131.754C91.7735 131.171 91.8501 130.763 92.0034 130.53C92.1566 130.18 92.6165 129.946 93.3829 129.83C94.1492 129.596 94.9923 129.538 95.9119 129.655C96.9849 129.655 97.9812 129.655 98.9008 129.655C99.9737 129.655 100.97 129.713 101.89 129.83C102.809 129.83 103.806 129.83 104.879 129.83C107.024 129.83 108.94 129.48 110.626 128.78C112.466 127.963 113.385 126.622 113.385 124.755V54.7664C113.385 52.7834 112.926 51.267 112.006 50.2171C111.086 49.0506 109.17 48.4674 106.258 48.4674C104.112 48.4674 101.89 48.584 99.5906 48.8173C97.4447 48.934 95.2988 49.109 93.153 49.3423C91.9267 49.3423 91.3136 48.8173 91.3136 47.7675C91.3136 46.601 91.9267 45.8428 93.153 45.4929C94.9923 45.0263 96.9082 44.7347 98.9008 44.618C101.047 44.3847 103.039 44.1514 104.879 43.9181C109.17 43.3349 113.462 42.6933 117.754 41.9934C122.046 41.2935 126.261 40.5353 130.399 39.7188C130.859 39.6021 131.472 39.5438 132.238 39.5438C133.924 39.5438 134.767 40.2437 134.767 41.6435C134.767 55.408 134.691 69.2308 134.538 83.112C134.538 96.9931 134.538 110.874 134.538 124.755C134.538 126.622 135.611 127.963 137.756 128.78C140.056 129.48 142.201 129.83 144.194 129.83C145.727 129.83 147.26 129.771 148.792 129.655C150.478 129.538 152.088 129.48 153.62 129.48C154.234 129.48 154.617 129.771 154.77 130.355C154.923 130.938 155 131.346 155 131.579ZM136.377 10.4984C136.377 13.4146 134.997 15.9225 132.238 18.0222C129.479 20.0052 126.184 20.9967 122.352 20.9967C118.52 20.9967 115.225 20.0052 112.466 18.0222C109.707 15.9225 108.327 13.4146 108.327 10.4984C108.327 7.58214 109.707 5.13253 112.466 3.14951C115.225 1.04984 118.52 0 122.352 0C126.184 0 129.479 1.04984 132.238 3.14951C134.997 5.13253 136.377 7.58214 136.377 10.4984Z" fill="#2A2A2A"/>
<path d="M80.4701 31.4951L76.7915 31.3201H75.8718L68.7445 14.1728C65.3724 13.7062 62.3835 13.4729 59.7778 13.4729C52.2673 13.4729 46.9792 15.6892 43.9137 20.1218C41.0014 24.5545 39.5453 32.3116 39.5453 43.3932V45.4929H42.994C53.5701 45.4929 61.6938 45.9595 67.365 46.8926C67.5183 46.8926 67.8248 46.951 68.2846 47.0676C68.1314 50.4504 66.8285 53.8915 64.3761 57.391H38.1658V122.306H41.6145C47.5923 122.306 52.8804 122.539 57.4787 123.006C62.077 123.472 64.5294 123.822 64.8359 124.056C64.8359 127.088 63.5331 130.471 60.9274 134.204H0.689744L0 128.08C7.05071 126.214 13.4883 124.814 19.3128 123.881V57.391H1.6094L0.919658 51.2669C6.43761 49.6339 12.5687 48.3507 19.3128 47.4176V40.2437C19.3128 27.0624 22.5316 17.4389 28.9692 11.3732C31.5749 9.04024 35.2536 7.11554 40.0051 5.59912C44.7567 3.96604 50.2747 3.14951 56.559 3.14951C68.8211 3.14951 80.4701 5.19084 91.506 9.27353C91.506 16.5057 90.5864 23.7379 88.747 30.9701C87.061 31.3201 84.302 31.4951 80.4701 31.4951Z" fill="#2A2A2A"/>
</svg>
