<svg width="137" height="134" viewBox="0 0 137 134" fill="none" xmlns="http://www.w3.org/2000/svg">
<path d="M131.417 128.167H5.58334" stroke="#2A2A2A" stroke-width="11" stroke-linecap="round"/>
<path d="M5.58334 57.5833L56.7088 15.8706C63.6026 10.2462 73.3974 10.2462 80.2912 15.8706L131.417 57.5833" stroke="#2A2A2A" stroke-width="11" stroke-linecap="round"/>
<path d="M90.5208 22.2917V9.45834C90.5208 7.68644 91.9295 6.25 93.6667 6.25H109.396C111.133 6.25 112.542 7.68644 112.542 9.45834V41.5417" stroke="#2A2A2A" stroke-width="11" stroke-linecap="round"/>
<path d="M18.1667 128.167V47.9583" stroke="#2A2A2A" stroke-width="11" stroke-linecap="round"/>
<path d="M118.833 128.167V47.9583" stroke="#2A2A2A" stroke-width="11" stroke-linecap="round"/>
<path d="M87.375 128.167V96.0833C87.375 87.0089 87.375 82.4717 84.6111 79.6522C81.8465 76.8333 77.3977 76.8333 68.5 76.8333C59.6023 76.8333 55.1534 76.8333 52.3892 79.6522C49.625 82.4717 49.625 87.0089 49.625 96.0833V128.167" stroke="#2A2A2A" stroke-width="11"/>
<path d="M81.0833 47.9583C81.0833 55.0462 75.4498 60.7917 68.5 60.7917C61.5502 60.7917 55.9167 55.0462 55.9167 47.9583C55.9167 40.8707 61.5502 35.125 68.5 35.125C75.4498 35.125 81.0833 40.8707 81.0833 47.9583Z" stroke="#2A2A2A" stroke-width="11"/>
</svg>
