<svg width="125" height="104" viewBox="0 0 125 104" fill="none" xmlns="http://www.w3.org/2000/svg">
<path fill-rule="evenodd" clip-rule="evenodd" d="M109.624 48.4072C107.212 48.4072 104.799 49.1906 102.982 50.7621L91.9585 60.3027C90.7376 58.6357 88.837 57.3362 86.4906 56.7924L60.4723 50.7621C58.3987 50.2816 56.2545 50.1913 54.175 50.4638C52.0956 50.7365 50.0828 51.3715 48.2668 52.3617L32.0246 61.2231L30.7109 59.249C29.0747 56.798 25.3173 55.9296 22.4834 57.3447L10.1311 63.5082C7.2972 64.9233 6.29313 68.173 7.92927 70.624L26.3366 98.1918C27.9727 100.643 31.7228 101.518 34.5567 100.102L46.909 93.9326C49.7429 92.5175 50.7543 89.2678 49.1182 86.8168L48.8758 86.4487L55.9143 82.3354L81.8079 86.7407C85.3564 87.344 88.5285 86.4878 91.0555 84.2524C99.4073 76.8643 107.769 69.5097 116.252 62.2704C116.259 62.2661 116.267 62.2618 116.274 62.2574C119.909 59.1143 119.909 53.9049 116.274 50.7618C114.457 49.1903 112.037 48.4072 109.624 48.4072ZM109.624 54.85C110.093 54.85 110.562 55.0197 110.953 55.3578C111.735 56.0342 111.735 56.9857 110.953 57.662C102.424 64.9412 94.0376 72.3234 85.6832 79.7138C85.5299 79.8497 83.475 80.3976 83.2612 80.3613L55.8338 75.7021C55.3471 75.6188 54.8463 75.6197 54.36 75.7047C53.8738 75.7896 53.4118 75.957 53.0007 76.1972L45.1108 80.8119L35.7898 66.8534L52.2741 57.8652C54.1371 56.8493 56.4 56.547 58.5273 57.04L84.5456 63.0702C85.6139 63.3179 86.1603 64.1396 85.8741 65.0634C85.5877 65.9872 84.6376 66.4599 83.5695 66.2123L67.2392 62.4291C66.2767 62.2062 65.2511 62.323 64.3882 62.754C63.5252 63.1849 62.8954 63.8945 62.6374 64.727C62.3796 65.5595 62.5147 66.4464 63.013 67.1928C63.5112 67.9391 64.3318 68.4838 65.2943 68.707L81.6245 72.4902C85.2915 73.3399 89.0905 72.1368 91.364 69.7226C91.7272 69.5789 92.0617 69.3861 92.3548 69.1513L108.296 55.3578C108.687 55.0197 109.156 54.85 109.624 54.85ZM24.9494 63.6161L26.7696 66.3456C26.8338 66.8066 27.0115 67.2503 27.2907 67.6469C27.5318 67.9629 27.8348 68.24 28.1861 68.4658L41.8595 88.9496L32.098 93.8246L15.188 68.4911L24.9494 63.6161Z" fill="#BA0000"/>
<path fill-rule="evenodd" clip-rule="evenodd" d="M81.7419 3.29443C67.2589 3.29443 55.4374 13.5185 55.4374 26.0444C55.4374 38.5704 67.2589 48.7944 81.7419 48.7944C96.225 48.7944 108.046 38.5704 108.046 26.0444C108.046 13.5185 96.225 3.29443 81.7419 3.29443ZM81.7419 9.79443C92.1633 9.79443 100.531 17.0313 100.531 26.0444C100.531 35.0576 92.1633 42.2944 81.7419 42.2944C71.3205 42.2944 62.953 35.0576 62.953 26.0444C62.953 17.0313 71.3205 9.79443 81.7419 9.79443Z" fill="#BA0000"/>
<path d="M74 30.4971C74 32.7469 76.2455 34.5561 79 34.5561H84.6287C87.024 34.5561 88.9701 32.9789 88.9701 31.0074C88.9701 28.8967 87.7725 28.1313 86.006 27.6442L76.994 25.2087C75.2275 24.7217 74.03 23.9794 74.03 21.8456C74.03 19.8973 75.976 18.2969 78.3713 18.2969H84C86.7545 18.2969 89 20.106 89 22.3558" stroke="#BA0000" stroke-width="3" stroke-linecap="round" stroke-linejoin="round"/>
<path d="M81.4851 16V36.875" stroke="#BA0000" stroke-width="3" stroke-linecap="round" stroke-linejoin="round"/>
</svg>
