<svg width="86" height="83" viewBox="0 0 86 83" fill="none" xmlns="http://www.w3.org/2000/svg">
<path d="M85.1355 77.8522L75.006 68.1407C77.8163 64.6026 79.508 60.2014 79.508 55.4273C79.499 49.8462 77.1816 44.4964 73.064 40.5512C68.9465 36.606 63.365 34.3875 57.5437 34.3823C51.7248 34.3909 46.1468 36.611 42.0322 40.5558C37.9176 44.5006 35.6021 49.8485 35.5931 55.4273C35.5985 61.0095 37.9134 66.3617 42.0298 70.3096C46.1463 74.2574 51.7281 76.4785 57.5505 76.4854C62.5368 76.4854 67.1275 74.8636 70.811 72.1692L80.9405 81.8742C81.2139 82.1394 81.5395 82.3499 81.8983 82.4935C82.2572 82.6372 82.6423 82.7112 83.0312 82.7112C83.4201 82.7112 83.8051 82.6372 84.164 82.4935C84.5229 82.3499 84.8484 82.1394 85.1219 81.8742C85.3989 81.6114 85.6191 81.2987 85.7698 80.954C85.9205 80.6094 85.9987 80.2396 86 79.8659C86.0013 79.4922 85.9255 79.122 85.7772 78.7764C85.6288 78.4309 85.4108 78.1168 85.1355 77.8522ZM41.5207 55.4273C41.5261 51.3529 43.2167 47.4469 46.2217 44.5659C49.2267 41.6849 53.3008 40.064 57.5505 40.0588C61.8019 40.0588 65.8792 41.678 68.8853 44.5601C71.8915 47.4423 73.5804 51.3513 73.5804 55.4273C73.5804 59.5033 71.8915 63.4123 68.8853 66.2945C65.8792 69.1766 61.8019 70.7958 57.5505 70.7958C53.3014 70.7889 49.2283 69.1675 46.2237 66.2868C43.2191 63.4062 41.5279 59.5012 41.5207 55.4273ZM66.7251 21.5839C66.7251 23.1535 65.3949 24.4222 63.7578 24.4222H34.106C33.3209 24.4222 32.5679 24.1232 32.0127 23.5909C31.4575 23.0586 31.1456 22.3367 31.1456 21.5839C31.1456 20.8312 31.4575 20.1092 32.0127 19.577C32.5679 19.0447 33.3209 18.7457 34.106 18.7457H63.7578C65.3949 18.7457 66.7251 20.0144 66.7251 21.5839ZM9.89075 77.0217H29.6586C30.4108 77.0706 31.1155 77.3916 31.6303 77.9197C32.145 78.4478 32.4314 79.1437 32.4314 79.8665C32.4314 80.5893 32.145 81.2851 31.6303 81.8133C31.1155 82.3414 30.4108 82.6624 29.6586 82.7113H9.89075C4.44743 82.7113 0 78.4604 0 73.2286V22.6499C0 21.3747 0.477485 20.1386 1.33014 19.1577L16.2959 2.08883C16.7977 1.51619 17.4241 1.05561 18.131 0.739316C18.838 0.423019 19.6085 0.258643 20.3886 0.25769H68.6964C74.1465 0.25769 78.5871 4.50855 78.5871 9.74038V30.1053C78.5871 30.8598 78.2745 31.5833 77.7181 32.1168C77.1616 32.6504 76.4069 32.9501 75.6199 32.9501C74.833 32.9501 74.0782 32.6504 73.5218 32.1168C72.9653 31.5833 72.6527 30.8598 72.6527 30.1053V9.73384C72.6509 8.73125 72.2352 7.77012 71.4963 7.06057C70.7575 6.35101 69.7558 5.95076 68.71 5.9473H25.2112V22.3883C25.1986 23.5869 24.6912 24.7319 23.8002 25.5727C22.9092 26.4135 21.707 26.8816 20.4568 26.8746H5.94127V73.2351C5.94127 75.3213 7.71479 77.0217 9.89075 77.0217ZM19.2836 7.51685L7.29869 21.185H19.2836V7.51685ZM26.6982 50.0908C27.4852 50.0908 28.2399 49.7911 28.7964 49.2576C29.3528 48.7241 29.6654 48.0005 29.6654 47.246C29.6654 46.4916 29.3528 45.768 28.7964 45.2345C28.2399 44.701 27.4852 44.4012 26.6982 44.4012H16.3163C15.5294 44.4012 14.7746 44.701 14.2182 45.2345C13.6617 45.768 13.3491 46.4916 13.3491 47.246C13.3491 48.0005 13.6617 48.7241 14.2182 49.2576C14.7746 49.7911 15.5294 50.0908 16.3163 50.0908H26.6982ZM26.6982 63.1508C27.4843 63.1508 28.2381 62.8514 28.7939 62.3185C29.3498 61.7856 29.662 61.0629 29.662 60.3093C29.662 59.5556 29.3498 58.8329 28.7939 58.3C28.2381 57.7671 27.4843 57.4677 26.6982 57.4677H16.3163C15.5303 57.4677 14.7764 57.7671 14.2206 58.3C13.6648 58.8329 13.3525 59.5556 13.3525 60.3093C13.3525 61.0629 13.6648 61.7856 14.2206 62.3185C14.7764 62.8514 15.5303 63.1508 16.3163 63.1508H26.6982ZM29.6586 31.5702H16.3163C15.5303 31.5702 14.7764 31.8696 14.2206 32.4024C13.6648 32.9353 13.3525 33.6581 13.3525 34.4117C13.3525 35.1653 13.6648 35.8881 14.2206 36.421C14.7764 36.9539 15.5303 37.2533 16.3163 37.2533H29.6586C30.4447 37.2533 31.1985 36.9539 31.7544 36.421C32.3102 35.8881 32.6224 35.1653 32.6224 34.4117C32.6224 33.6581 32.3102 32.9353 31.7544 32.4024C31.1985 31.8696 30.4447 31.5702 29.6586 31.5702Z" fill="#BA0000"/>
</svg>
