<svg width="138" height="142" viewBox="0 0 138 142" fill="none" xmlns="http://www.w3.org/2000/svg">
<path fill-rule="evenodd" clip-rule="evenodd" d="M69 109.5C89.7106 109.5 106.5 92.2629 106.5 71C106.5 49.737 89.7106 32.5 69 32.5C48.2893 32.5 31.5 49.737 31.5 71C31.5 92.2629 48.2893 109.5 69 109.5ZM69 96.6667C82.8069 96.6667 94 85.1751 94 71C94 56.8247 82.8069 45.3333 69 45.3333C55.1929 45.3333 44 56.8247 44 71C44 85.1751 55.1929 96.6667 69 96.6667Z" fill="#2A2A2A"/>
<path d="M106.5 26.0833C103.048 26.0833 100.25 28.9562 100.25 32.5C100.25 36.0438 103.048 38.9167 106.5 38.9167C109.952 38.9167 112.75 36.0438 112.75 32.5C112.75 28.9562 109.952 26.0833 106.5 26.0833Z" fill="#2A2A2A"/>
<path fill-rule="evenodd" clip-rule="evenodd" d="M4.33725 21.4381C0.250004 29.6737 0.250004 40.4547 0.250004 62.0167V79.9833C0.250004 101.545 0.250004 112.327 4.33725 120.562C7.9325 127.806 13.6693 133.696 20.7254 137.387C28.7471 141.583 39.2481 141.583 60.25 141.583H77.75C98.7519 141.583 109.253 141.583 117.274 137.387C124.331 133.696 130.067 127.806 133.662 120.562C137.75 112.327 137.75 101.545 137.75 79.9833V62.0167C137.75 40.4547 137.75 29.6737 133.662 21.4381C130.067 14.1938 124.331 8.30404 117.274 4.61291C109.253 0.416672 98.7519 0.416672 77.75 0.416672H60.25C39.2481 0.416672 28.7471 0.416672 20.7254 4.61291C13.6693 8.30404 7.9325 14.1938 4.33725 21.4381ZM77.75 13.25H60.25C49.5428 13.25 42.2641 13.26 36.638 13.7319C31.1578 14.1916 28.3553 15.0248 26.4003 16.0475C21.6962 18.5083 17.8717 22.4348 15.4748 27.2643C14.4787 29.2714 13.6671 32.1486 13.2194 37.775C12.7598 43.5511 12.75 51.0239 12.75 62.0167V79.9833C12.75 90.9764 12.7598 98.4486 13.2194 104.225C13.6671 109.852 14.4787 112.729 15.4748 114.736C17.8717 119.565 21.6962 123.492 26.4003 125.952C28.3553 126.975 31.1578 127.809 36.638 128.268C42.2641 128.74 49.5428 128.75 60.25 128.75H77.75C88.4575 128.75 95.7356 128.74 101.362 128.268C106.842 127.809 109.645 126.975 111.6 125.952C116.304 123.492 120.128 119.565 122.525 114.736C123.521 112.729 124.333 109.852 124.781 104.225C125.24 98.4486 125.25 90.9764 125.25 79.9833V62.0167C125.25 51.0239 125.24 43.5511 124.781 37.775C124.333 32.1486 123.521 29.2714 122.525 27.2643C120.128 22.4348 116.304 18.5083 111.6 16.0475C109.645 15.0248 106.842 14.1916 101.362 13.7319C95.7356 13.26 88.4575 13.25 77.75 13.25Z" fill="#2A2A2A"/>
</svg>
