<svg width="316" height="158" viewBox="0 0 316 158" fill="none" xmlns="http://www.w3.org/2000/svg">
<path fill-rule="evenodd" clip-rule="evenodd" d="M0.774414 55.6831L13.7938 47.2695C60.8572 18.497 106.345 40.5687 159.269 40.6092C176.422 40.6224 193.389 39.2342 201.428 22.9603C199.424 23.4199 195.486 36.9094 168.09 37.7844C152.13 37.7844 127.084 34.0661 110.429 31.6589C107.204 31.1925 104.478 30.8565 101.368 30.2733C99.3528 29.8957 93.5006 29.4172 92.0617 28.7955C92.4737 27.9531 107.899 21.9825 109.643 21.264C115.77 18.7386 122.149 16.7154 128.907 14.9178C142.853 11.2078 158.758 9.63179 174.489 9.63141C196.692 9.63859 216.779 13.4518 237.239 16.5786C263.461 20.5856 272.505 22.5914 300.174 23.7835C300.944 27.4976 295.898 31.2582 299.184 41.7026C300.057 44.4798 300.92 46.7505 302.132 49.3202C303.582 52.3915 304.147 53.7396 305.203 57.1193C305.82 56.4998 305.594 57.0297 305.825 55.9828C305.997 55.1974 305.402 52.769 305.187 51.9651C302.732 42.7798 299.117 34.1235 306.411 23.7702C307.153 22.7165 308.589 21.4152 308.709 20.3244C302.745 19.7057 296.641 20.123 290.616 19.2099C272.368 16.4429 259.569 13.7772 241.475 9.86574C191.906 -0.850354 148.964 -6.05817 101.8 16.0131C78.5575 26.8902 82.0116 24.5178 57.4756 27.9625C49.6388 29.0623 41.8556 31.0012 34.9069 33.5732C28.2489 36.0378 21.8385 39.45 16.2705 43.0632C12.5197 45.4972 2.06134 53.1315 0.774414 55.6831Z" fill="#FB0102"/>
<path fill-rule="evenodd" clip-rule="evenodd" d="M121.67 74.2557C123.553 74.9447 188.095 74.5796 199.449 74.5796C207.813 74.5792 217.51 75.0456 225.706 74.5475C225.518 71.5711 222.294 67.8951 222.76 60.1437C223.063 55.1048 225.199 51.1333 227.988 47.7381C233.615 40.8889 243.504 37.0878 253.444 40.7071C267.931 45.9825 272.814 62.2772 265.173 74.6782C263.579 77.2646 258.782 82.1031 256.241 83.0589C258.983 82.9308 263.963 78.9593 265.882 77C268.62 74.2043 270.702 70.9516 271.927 66.7099C274.673 57.1979 271.35 47.641 266.106 41.8201C253.73 28.0808 231.031 30.8006 220.918 43.8762C216.143 50.0486 215.218 54.2113 215.089 62.0754C215.02 66.3255 216.182 67.0583 212.218 67.3595C202.53 68.0962 191.632 68.5108 182.05 69.5086C177.45 69.9874 171.249 70.3586 166.808 70.5174C160.903 70.7286 122.639 73.7212 121.67 74.2557Z" fill="#FB0102"/>
<path fill-rule="evenodd" clip-rule="evenodd" d="M53.8775 56.3316C55.3028 56.0742 57.4617 54.1905 59.6084 53.3897C75.0497 47.6304 89.4236 60.0707 88.4077 74.2417C88.1998 77.1383 87.8143 79.1993 86.7088 81.7274L87.9398 80.4843C90.3866 76.5903 90.8753 70.0963 90.0574 65.6009C88.2111 55.4506 77.6991 47.9838 66.8353 49.3584C62.1037 49.9571 55.3474 53.2336 53.8775 56.3316Z" fill="#FB0102"/>
<path d="M44.4865 96.6947L42.011 61.759H22.755L29.0819 69.4613L9.73416 143.551L25.6891 126.771L33.575 96.4196L35.8673 121.177H40.6356L55.5817 97.4283L48.0627 126.771H59.6164L76.6715 61.759H65.7596L44.4865 96.6947Z" fill="black"/>
<path d="M99.2281 87.0667H83.365C79.4222 87.0667 75.846 88.534 74.8373 92.7519C73.5537 97.0617 67.502 118.518 67.502 121.819C67.502 125.67 70.803 126.771 74.0122 126.771H94.185L87.4911 118.427H78.6886L80.8894 109.899H98.2197L102.071 107.423C103.171 103.113 106.105 96.3281 106.105 91.9268C106.105 88.2588 102.438 87.0667 99.2281 87.0667ZM83.1817 101.738L84.8322 95.3193H94.5517L92.8097 101.738H83.1817Z" fill="black"/>
<path d="M135.723 86.9753C132.147 86.9753 128.479 87.4337 125.178 87.617L125.361 87.0667H106.656L112.432 94.3106L104.363 126.771H114.725L122.977 95.7778H130.679L128.387 104.321L140.491 99.6292C141.041 97.0617 142.508 94.2191 142.508 91.7432C142.508 87.9073 138.841 86.9753 135.723 86.9753Z" fill="black"/>
<path d="M169.1 87.0667H153.512C149.569 87.0667 145.901 88.534 144.984 92.7519C143.517 97.5202 137.648 118.06 137.648 121.544C137.648 125.487 140.674 126.771 144.067 126.771H159.655C169.558 126.771 169.65 115.859 171.667 108.478L159.288 114.376L158.371 118.335H149.018L154.979 95.4112H164.332L163.415 98.7273L173.043 103.327C173.868 100.011 175.793 95.4112 175.793 91.9268C175.793 88.2588 172.217 87.0667 169.1 87.0667Z" fill="black"/>
<path d="M204.861 87.0667H188.998C185.055 87.0667 181.479 88.534 180.47 92.7519C179.186 97.0617 173.134 118.518 173.134 121.819C173.134 125.67 176.435 126.771 179.645 126.771H199.818L193.124 118.427H184.321L186.522 109.899H203.852L207.703 107.423C208.804 103.113 211.738 96.3281 211.738 91.9268C211.738 88.2588 208.07 87.0667 204.861 87.0667ZM188.814 101.738L190.465 95.3193H200.184L198.442 101.738H188.814Z" fill="black"/>
<path d="M237.596 87.0667C229.618 87.0667 216.873 85.8747 214.03 96.3281C212.93 100.454 208.162 115.767 208.162 119.068C208.162 124.478 213.48 126.771 218.157 126.771C221.274 126.771 224.117 126.404 227.142 126.037L226.959 126.771H237.871L254.926 62.6759L241.63 71.6621L237.596 87.0667ZM225.4 95.4112H235.395L229.252 118.121L219.165 117.846L225.4 95.4112Z" fill="black"/>
<path d="M276.474 87.0667H260.611C256.668 87.0667 253.092 88.534 252.083 92.7519C250.8 97.0617 244.748 118.518 244.748 121.819C244.748 125.67 248.049 126.771 251.258 126.771H271.431L264.737 118.427H255.935L258.136 109.899H275.466L279.317 107.423C280.417 103.113 283.352 96.3281 283.352 91.9268C283.352 88.2588 279.684 87.0667 276.474 87.0667ZM260.428 101.738L262.078 95.3193H271.798L270.056 101.738H260.428Z" fill="black"/>
<path d="M315.628 87.0667H295.822C288.486 87.0667 285.277 93.3022 285.277 100.103C285.277 105.36 297.839 112.084 301.049 114.193L299.949 118.335H288.486L279.225 126.771H301.324C308.659 126.771 312.052 119.435 312.052 112.634C312.052 107.469 299.49 101.02 296.281 98.6355L297.198 95.4112H306.092L315.628 87.0667Z" fill="black"/>
<path d="M91.5466 157.681V144.614H92.6853L98.6589 154.806H98.0613L103.979 144.614H105.117V157.681H103.792V146.686H104.109L98.6589 156.019H98.0054L92.5175 146.686H92.8721V157.681H91.5466Z" fill="#FB0102"/>
<path d="M114.637 157.793C112.97 157.793 111.657 157.314 110.699 156.355C109.74 155.397 109.261 153.979 109.261 152.1V144.614H110.643V152.044C110.643 153.586 110.991 154.725 111.688 155.46C112.385 156.194 113.368 156.561 114.637 156.561C115.919 156.561 116.908 156.194 117.605 155.46C118.302 154.725 118.651 153.586 118.651 152.044V144.614H119.995V152.1C119.995 153.979 119.518 155.397 118.566 156.355C117.615 157.314 116.305 157.793 114.637 157.793Z" fill="#FB0102"/>
<path d="M124.176 157.681L124.157 144.614H125.52L125.539 156.486H132.837L132.856 157.681H124.176Z" fill="#FB0102"/>
<path d="M136.496 157.681L136.477 145.809H131.885V144.614H142.451V145.809H137.84L137.859 157.681H136.496Z" fill="#FB0102"/>
<path d="M144.653 157.681V144.614H146.034V157.681H144.653Z" fill="#FB0102"/>
<path d="M150.29 157.681V144.614H151.429L157.403 154.806H156.805L162.722 144.614H163.861V157.681H162.536V146.686H162.853L157.403 156.019H156.749L151.261 146.686H151.616V157.681H150.29Z" fill="#FB0102"/>
<path d="M166.026 157.681L171.999 144.614H173.362L179.336 157.681H177.88L172.391 145.417H172.952L167.464 157.681H166.026ZM168.378 154.19L168.789 153.07H176.386L176.797 154.19H168.378Z" fill="#FB0102"/>
<path d="M181.501 157.681V144.614H186.392C187.499 144.614 188.451 144.791 189.248 145.146C190.044 145.501 190.657 146.011 191.086 146.677C191.516 147.343 191.731 148.148 191.731 149.094C191.731 150.015 191.516 150.808 191.086 151.474C190.657 152.14 190.044 152.65 189.248 153.005C188.451 153.359 187.499 153.537 186.392 153.537H182.266L182.882 152.902V157.681H181.501ZM190.424 157.681L187.064 152.939H188.557L191.936 157.681H190.424ZM182.882 153.014L182.266 152.361H186.354C187.661 152.361 188.654 152.075 189.332 151.502C190.01 150.93 190.349 150.127 190.349 149.094C190.349 148.049 190.01 147.24 189.332 146.667C188.654 146.095 187.661 145.809 186.354 145.809H182.266L182.882 145.155V153.014Z" fill="#FB0102"/>
<path d="M200.672 157.793C199.688 157.793 198.78 157.628 197.946 157.298C197.113 156.968 196.391 156.505 195.781 155.907C195.171 155.31 194.695 154.607 194.353 153.798C194.011 152.989 193.839 152.106 193.839 151.147C193.839 150.189 194.011 149.306 194.353 148.497C194.695 147.688 195.174 146.985 195.79 146.388C196.406 145.79 197.131 145.327 197.965 144.997C198.799 144.667 199.707 144.502 200.69 144.502C201.636 144.502 202.526 144.661 203.36 144.978C204.193 145.295 204.896 145.771 205.469 146.406L204.591 147.283C204.056 146.736 203.465 146.341 202.818 146.098C202.171 145.855 201.474 145.734 200.728 145.734C199.943 145.734 199.215 145.868 198.543 146.135C197.871 146.403 197.287 146.783 196.789 147.274C196.291 147.766 195.902 148.338 195.622 148.991C195.342 149.645 195.202 150.364 195.202 151.147C195.202 151.931 195.342 152.65 195.622 153.303C195.902 153.957 196.291 154.529 196.789 155.021C197.287 155.512 197.871 155.892 198.543 156.16C199.215 156.427 199.943 156.561 200.728 156.561C201.474 156.561 202.171 156.436 202.818 156.188C203.465 155.938 204.056 155.54 204.591 154.993L205.469 155.87C204.896 156.505 204.193 156.984 203.36 157.307C202.526 157.631 201.63 157.793 200.672 157.793Z" fill="#FB0102"/>
<path d="M205.992 157.681L211.965 144.614H213.328L219.301 157.681H217.845L212.357 145.417H212.917L207.429 157.681H205.992ZM208.344 154.19L208.754 153.07H216.352L216.762 154.19H208.344Z" fill="#FB0102"/>
<path d="M225.069 157.793C224.098 157.793 223.168 157.634 222.279 157.317C221.389 156.999 220.701 156.592 220.216 156.094L220.757 155.03C221.218 155.478 221.837 155.855 222.615 156.16C223.392 156.464 224.211 156.617 225.069 156.617C225.891 156.617 226.559 156.514 227.076 156.309C227.592 156.104 227.972 155.827 228.214 155.478C228.457 155.13 228.579 154.744 228.579 154.321C228.579 153.811 228.432 153.4 228.14 153.089C227.847 152.778 227.465 152.532 226.992 152.351C226.519 152.171 225.996 152.012 225.424 151.875C224.851 151.739 224.279 151.592 223.706 151.437C223.134 151.281 222.608 151.073 222.129 150.811C221.65 150.55 221.264 150.205 220.972 149.776C220.679 149.346 220.533 148.783 220.533 148.086C220.533 147.439 220.704 146.845 221.046 146.303C221.389 145.762 221.915 145.327 222.624 144.997C223.333 144.667 224.242 144.502 225.349 144.502C226.083 144.502 226.811 144.605 227.533 144.81C228.255 145.016 228.877 145.299 229.4 145.659L228.933 146.761C228.373 146.388 227.779 146.114 227.15 145.939C226.522 145.765 225.915 145.678 225.331 145.678C224.547 145.678 223.899 145.784 223.389 145.995C222.879 146.207 222.502 146.49 222.26 146.845C222.017 147.199 221.896 147.601 221.896 148.049C221.896 148.559 222.042 148.97 222.335 149.281C222.627 149.592 223.013 149.834 223.492 150.009C223.971 150.183 224.497 150.339 225.069 150.475C225.642 150.612 226.211 150.762 226.777 150.923C227.344 151.085 227.866 151.294 228.345 151.549C228.824 151.804 229.21 152.143 229.502 152.566C229.795 152.989 229.941 153.543 229.941 154.227C229.941 154.862 229.767 155.45 229.418 155.991C229.07 156.533 228.538 156.968 227.822 157.298C227.107 157.628 226.189 157.793 225.069 157.793Z" fill="#FB0102"/>
<path d="M91.5466 157.681V144.614H92.6853L98.6589 154.806H98.0613L103.979 144.614H105.117V157.681H103.792V146.686H104.109L98.6589 156.019H98.0054L92.5175 146.686H92.8721V157.681H91.5466Z" stroke="#FB0102" stroke-width="0.288" stroke-miterlimit="22.9256"/>
<path d="M114.637 157.793C112.97 157.793 111.657 157.314 110.699 156.355C109.74 155.397 109.261 153.979 109.261 152.1V144.614H110.643V152.044C110.643 153.586 110.991 154.725 111.688 155.46C112.385 156.194 113.368 156.561 114.637 156.561C115.919 156.561 116.908 156.194 117.605 155.46C118.302 154.725 118.651 153.586 118.651 152.044V144.614H119.995V152.1C119.995 153.979 119.518 155.397 118.566 156.355C117.615 157.314 116.305 157.793 114.637 157.793Z" stroke="#FB0102" stroke-width="0.288" stroke-miterlimit="22.9256"/>
<path d="M124.176 157.681L124.157 144.614H125.52L125.539 156.486H132.837L132.856 157.681H124.176Z" stroke="#FB0102" stroke-width="0.288" stroke-miterlimit="22.9256"/>
<path d="M136.496 157.681L136.477 145.809H131.885V144.614H142.451V145.809H137.84L137.859 157.681H136.496Z" stroke="#FB0102" stroke-width="0.288" stroke-miterlimit="22.9256"/>
<path d="M144.653 157.681V144.614H146.034V157.681H144.653Z" stroke="#FB0102" stroke-width="0.288" stroke-miterlimit="22.9256"/>
<path d="M150.29 157.681V144.614H151.429L157.403 154.806H156.805L162.722 144.614H163.861V157.681H162.536V146.686H162.853L157.403 156.019H156.749L151.261 146.686H151.616V157.681H150.29Z" stroke="#FB0102" stroke-width="0.288" stroke-miterlimit="22.9256"/>
<path d="M166.026 157.681L171.999 144.614H173.362L179.336 157.681H177.88L172.391 145.417H172.952L167.464 157.681H166.026ZM168.378 154.19L168.789 153.07H176.386L176.797 154.19H168.378Z" stroke="#FB0102" stroke-width="0.288" stroke-miterlimit="22.9256"/>
<path d="M181.501 157.681V144.614H186.392C187.499 144.614 188.451 144.791 189.248 145.146C190.044 145.501 190.657 146.011 191.086 146.677C191.516 147.343 191.731 148.148 191.731 149.094C191.731 150.015 191.516 150.808 191.086 151.474C190.657 152.14 190.044 152.65 189.248 153.005C188.451 153.359 187.499 153.537 186.392 153.537H182.266L182.882 152.902V157.681H181.501ZM190.424 157.681L187.064 152.939H188.557L191.936 157.681H190.424ZM182.882 153.014L182.266 152.361H186.354C187.661 152.361 188.654 152.075 189.332 151.502C190.01 150.93 190.349 150.127 190.349 149.094C190.349 148.049 190.01 147.24 189.332 146.667C188.654 146.095 187.661 145.809 186.354 145.809H182.266L182.882 145.155V153.014Z" stroke="#FB0102" stroke-width="0.288" stroke-miterlimit="22.9256"/>
<path d="M200.672 157.793C199.688 157.793 198.78 157.628 197.946 157.298C197.113 156.968 196.391 156.505 195.781 155.907C195.171 155.31 194.695 154.607 194.353 153.798C194.011 152.989 193.839 152.106 193.839 151.147C193.839 150.189 194.011 149.306 194.353 148.497C194.695 147.688 195.174 146.985 195.79 146.388C196.406 145.79 197.131 145.327 197.965 144.997C198.799 144.667 199.707 144.502 200.69 144.502C201.636 144.502 202.526 144.661 203.36 144.978C204.193 145.295 204.896 145.771 205.469 146.406L204.591 147.283C204.056 146.736 203.465 146.341 202.818 146.098C202.171 145.855 201.474 145.734 200.728 145.734C199.943 145.734 199.215 145.868 198.543 146.135C197.871 146.403 197.287 146.783 196.789 147.274C196.291 147.766 195.902 148.338 195.622 148.991C195.342 149.645 195.202 150.364 195.202 151.147C195.202 151.931 195.342 152.65 195.622 153.303C195.902 153.957 196.291 154.529 196.789 155.021C197.287 155.512 197.871 155.892 198.543 156.16C199.215 156.427 199.943 156.561 200.728 156.561C201.474 156.561 202.171 156.436 202.818 156.188C203.465 155.938 204.056 155.54 204.591 154.993L205.469 155.87C204.896 156.505 204.193 156.984 203.36 157.307C202.526 157.631 201.63 157.793 200.672 157.793Z" stroke="#FB0102" stroke-width="0.288" stroke-miterlimit="22.9256"/>
<path d="M205.992 157.681L211.965 144.614H213.328L219.301 157.681H217.845L212.357 145.417H212.917L207.429 157.681H205.992ZM208.344 154.19L208.754 153.07H216.352L216.762 154.19H208.344Z" stroke="#FB0102" stroke-width="0.288" stroke-miterlimit="22.9256"/>
<path d="M225.069 157.793C224.098 157.793 223.168 157.634 222.279 157.317C221.389 156.999 220.701 156.592 220.216 156.094L220.757 155.03C221.218 155.478 221.837 155.855 222.615 156.16C223.392 156.464 224.211 156.617 225.069 156.617C225.891 156.617 226.559 156.514 227.076 156.309C227.592 156.104 227.972 155.827 228.214 155.478C228.457 155.13 228.579 154.744 228.579 154.321C228.579 153.811 228.432 153.4 228.14 153.089C227.847 152.778 227.465 152.532 226.992 152.351C226.519 152.171 225.996 152.012 225.424 151.875C224.851 151.739 224.279 151.592 223.706 151.437C223.134 151.281 222.608 151.073 222.129 150.811C221.65 150.55 221.264 150.205 220.972 149.776C220.679 149.346 220.533 148.783 220.533 148.086C220.533 147.439 220.704 146.845 221.046 146.303C221.389 145.762 221.915 145.327 222.624 144.997C223.333 144.667 224.242 144.502 225.349 144.502C226.083 144.502 226.811 144.605 227.533 144.81C228.255 145.016 228.877 145.299 229.4 145.659L228.933 146.761C228.373 146.388 227.779 146.114 227.15 145.939C226.522 145.765 225.915 145.678 225.331 145.678C224.547 145.678 223.899 145.784 223.389 145.995C222.879 146.207 222.502 146.49 222.26 146.845C222.017 147.199 221.896 147.601 221.896 148.049C221.896 148.559 222.042 148.97 222.335 149.281C222.627 149.592 223.013 149.834 223.492 150.009C223.971 150.183 224.497 150.339 225.069 150.475C225.642 150.612 226.211 150.762 226.777 150.923C227.344 151.085 227.866 151.294 228.345 151.549C228.824 151.804 229.21 152.143 229.502 152.566C229.795 152.989 229.941 153.543 229.941 154.227C229.941 154.862 229.767 155.45 229.418 155.991C229.07 156.533 228.538 156.968 227.822 157.298C227.107 157.628 226.189 157.793 225.069 157.793Z" stroke="#FB0102" stroke-width="0.288" stroke-miterlimit="22.9256"/>
<path d="M239.706 151.712H312.187" stroke="black" stroke-width="0.96" stroke-miterlimit="22.9256"/>
<path d="M9.60602 151.712H82.0864" stroke="black" stroke-width="0.96" stroke-miterlimit="22.9256"/>
<path fill-rule="evenodd" clip-rule="evenodd" d="M8.16376 56.2508C13.1153 55.9881 14.431 56.3664 16.2663 54.1248C21.1355 48.1777 27.041 44.7311 34.1752 41.9895C25.7397 42.3738 10.3774 51.8325 8.16376 56.2508Z" fill="#FB0102"/>
<path fill-rule="evenodd" clip-rule="evenodd" d="M102.3 29.3349C106.239 28.1126 112.976 25.2908 121.262 26.2904C120.669 28.4074 119.887 29.3299 118.838 30.7733C123.445 29.6017 126.497 26.685 127.406 22.91C117.187 22.6632 111.085 24.3122 102.3 29.3349Z" fill="#FB0102"/>
<path fill-rule="evenodd" clip-rule="evenodd" d="M293.167 18.9162L304.129 19.1555L305.748 12.7469C302.402 13.1532 294.818 15.8688 293.167 18.9162Z" fill="#FB0102"/>
<path fill-rule="evenodd" clip-rule="evenodd" d="M297.451 36.6531C295.994 36.0798 289.699 35.9044 289.405 35.5219C289.316 35.4051 289.332 35.1874 289.018 34.667C289.929 34.5079 296.137 33.5861 296.259 33.5056L284.13 33.2217C286.19 38.321 293.018 36.965 297.451 36.6531Z" fill="#FB0102"/>
<path fill-rule="evenodd" clip-rule="evenodd" d="M201.649 64.7479C182.847 65.6436 161.643 66.4592 143.263 68.5629C148.298 68.3819 190.983 68.1612 201.649 64.7479Z" fill="#FB0102"/>
<path fill-rule="evenodd" clip-rule="evenodd" d="M302.728 55.7345C301.601 55.2904 296.727 55.1547 296.499 54.8587C296.43 54.7684 296.442 54.5998 296.199 54.1966C296.905 54.0737 301.711 53.3598 301.806 53.2974L292.415 53.0778C294.009 57.0259 299.297 55.976 302.728 55.7345Z" fill="#FB0102"/>
<path fill-rule="evenodd" clip-rule="evenodd" d="M201.649 64.7479C182.847 65.6436 161.643 66.4592 143.263 68.5629C148.298 68.3819 190.983 68.1612 201.649 64.7479Z" fill="#FB0102"/>
<path fill-rule="evenodd" clip-rule="evenodd" d="M181.583 20.9481C176.475 34.9977 165.657 38.8861 166.874 39.032C169.021 40.2085 177.978 34.1511 181.583 20.9481Z" fill="#FB0102"/>
</svg>
