<svg width="315" height="158" viewBox="0 0 315 158" fill="none" xmlns="http://www.w3.org/2000/svg">
<path fill-rule="evenodd" clip-rule="evenodd" d="M0 55.0414L13.0193 46.6278C60.0828 17.8554 105.57 39.9271 158.495 39.9675C175.647 39.9808 192.614 38.5925 200.653 22.3187C198.649 22.7782 194.712 36.2678 167.315 37.1427C151.356 37.1427 126.31 33.4244 109.655 31.0172C106.43 30.5509 103.703 30.2148 100.593 29.6317C98.5784 29.2541 92.7262 28.7756 91.2873 28.1539C91.6993 27.3114 107.125 21.3409 108.869 20.6224C114.995 18.0969 121.375 16.0737 128.133 14.2762C142.078 10.5662 157.984 8.99016 173.715 8.98978C195.918 8.99696 216.005 12.8101 236.465 15.9369C262.687 19.944 271.731 21.9498 299.4 23.1418C300.17 26.856 295.123 30.6166 298.409 41.061C299.283 43.8382 300.145 46.1089 301.358 48.6786C302.807 51.7498 303.373 53.098 304.429 56.4777C305.046 55.8582 304.819 56.3881 305.05 55.3411C305.223 54.5558 304.628 52.1274 304.413 51.3235C301.958 42.1381 298.342 33.4819 305.636 23.1286C306.379 22.0749 307.814 20.7736 307.934 19.6828C301.971 19.0641 295.866 19.4814 289.842 18.5682C271.593 15.8012 258.794 13.1355 240.7 9.22411C191.131 -1.49199 148.19 -6.6998 101.026 15.3715C77.7831 26.2486 81.2372 23.8762 56.7012 27.3209C48.8644 28.4207 41.0812 30.3596 34.1325 32.9316C27.4745 35.3962 21.0641 38.8084 15.4961 42.4216C11.7453 44.8556 1.28693 52.4899 0 55.0414Z" fill="white"/>
<path fill-rule="evenodd" clip-rule="evenodd" d="M120.895 73.614C122.779 74.303 187.321 73.938 198.675 73.938C207.038 73.9376 216.736 74.404 224.931 73.9058C224.743 70.9294 221.519 67.2535 221.985 59.502C222.288 54.4632 224.425 50.4917 227.214 47.0965C232.841 40.2472 242.73 36.4462 252.669 40.0654C267.156 45.3409 272.039 61.6356 264.398 74.0366C262.805 76.6229 258.008 81.4615 255.466 82.4173C258.209 82.2892 263.189 78.3177 265.107 76.3583C267.846 73.5626 269.928 70.31 271.153 66.0682C273.899 56.5563 270.575 46.9994 265.332 41.1785C252.955 27.4392 230.257 30.1589 220.143 43.2346C215.369 49.4069 214.444 53.5697 214.315 61.4338C214.245 65.6838 215.407 66.4167 211.444 66.7179C201.755 67.4545 190.857 67.8692 181.276 68.867C176.675 69.3458 170.474 69.717 166.034 69.8757C160.129 70.087 121.865 73.0796 120.895 73.614Z" fill="white"/>
<path fill-rule="evenodd" clip-rule="evenodd" d="M53.1031 55.69C54.5284 55.4326 56.6872 53.5489 58.834 52.748C74.2753 46.9888 88.6492 59.4291 87.6333 73.6C87.4254 76.4967 87.0399 78.5577 85.9344 81.0858L87.1654 79.8427C89.6122 75.9487 90.1009 69.4547 89.283 64.9593C87.4367 54.809 76.9247 47.3422 66.0608 48.7168C61.3293 49.3154 54.573 52.5919 53.1031 55.69Z" fill="white"/>
<path d="M43.7121 96.0531L41.2365 61.1174H21.9806L28.3075 68.8197L8.95975 142.909L24.9146 126.129L32.8006 95.7779L35.0929 120.536H39.8612L54.8073 96.7867L47.2883 126.129H58.842L75.8971 61.1174H64.9852L43.7121 96.0531Z" fill="white"/>
<path d="M98.4536 86.4251H82.5906C78.6478 86.4251 75.0716 87.8923 74.0628 92.1103C72.7793 96.4201 66.7275 117.876 66.7275 121.177C66.7275 125.029 70.0286 126.129 73.2378 126.129H93.4106L86.7167 117.785H77.9142L80.115 109.257H97.4453L101.296 106.782C102.397 102.472 105.331 95.6865 105.331 91.2852C105.331 87.6172 101.663 86.4251 98.4536 86.4251ZM82.4073 101.096L84.0578 94.6777H93.7772L92.0353 101.096H82.4073Z" fill="white"/>
<path d="M134.948 86.3336C131.372 86.3336 127.705 86.7921 124.404 86.9754L124.587 86.4251H105.881L111.658 93.669L103.589 126.129H113.95L122.203 95.1362H129.905L127.613 103.679L139.717 98.9875C140.267 96.4201 141.734 93.5775 141.734 91.1015C141.734 87.2657 138.066 86.3336 134.948 86.3336Z" fill="white"/>
<path d="M168.325 86.4251H152.737C148.794 86.4251 145.127 87.8923 144.209 92.1103C142.743 96.8785 136.874 117.418 136.874 120.902C136.874 124.845 139.9 126.129 143.292 126.129H158.881C168.784 126.129 168.875 115.218 170.893 107.836L158.514 113.735L157.597 117.693H148.244L154.204 94.7696H163.557L162.64 98.0857L172.268 102.686C173.093 99.3696 175.019 94.7696 175.019 91.2852C175.019 87.6172 171.443 86.4251 168.325 86.4251Z" fill="white"/>
<path d="M204.086 86.4251H188.223C184.28 86.4251 180.704 87.8923 179.695 92.1103C178.412 96.4201 172.36 117.876 172.36 121.177C172.36 125.029 175.661 126.129 178.87 126.129H199.043L192.349 117.785H183.547L185.748 109.257H203.078L206.929 106.782C208.029 102.472 210.963 95.6865 210.963 91.2852C210.963 87.6172 207.296 86.4251 204.086 86.4251ZM188.04 101.096L189.69 94.6777H199.41L197.668 101.096H188.04Z" fill="white"/>
<path d="M236.821 86.4251C228.844 86.4251 216.098 85.2331 213.256 95.6865C212.155 99.8126 207.387 115.126 207.387 118.427C207.387 123.837 212.706 126.129 217.382 126.129C220.5 126.129 223.342 125.762 226.368 125.395L226.185 126.129H237.097L254.152 62.0343L240.856 71.0205L236.821 86.4251ZM224.626 94.7696H234.621L228.477 117.479L218.391 117.204L224.626 94.7696Z" fill="white"/>
<path d="M275.7 86.4251H259.837C255.894 86.4251 252.318 87.8923 251.309 92.1103C250.026 96.4201 243.974 117.876 243.974 121.177C243.974 125.029 247.275 126.129 250.484 126.129H270.657L263.963 117.785H255.16L257.361 109.257H274.691L278.542 106.782C279.643 102.472 282.577 95.6865 282.577 91.2852C282.577 87.6172 278.909 86.4251 275.7 86.4251ZM259.654 101.096L261.304 94.6777H271.023L269.281 101.096H259.654Z" fill="white"/>
<path d="M314.854 86.4251H295.048C287.712 86.4251 284.503 92.6606 284.503 99.4611C284.503 104.718 297.065 111.443 300.274 113.552L299.174 117.693H287.712L278.451 126.129H300.55C307.885 126.129 311.278 118.793 311.278 111.993C311.278 106.827 298.715 100.378 295.506 97.9939L296.423 94.7696H305.317L314.854 86.4251Z" fill="white"/>
<path d="M90.7722 157.039V143.973H91.9109L97.8845 154.164H97.2869L103.204 143.973H104.343V157.039H103.018V146.045H103.335L97.8845 155.378H97.231L91.7431 146.045H92.0976V157.039H90.7722Z" fill="white"/>
<path d="M113.863 157.151C112.195 157.151 110.882 156.672 109.924 155.714C108.966 154.756 108.487 153.337 108.487 151.458V143.973H109.868V151.402C109.868 152.945 110.217 154.084 110.914 154.818C111.61 155.552 112.594 155.919 113.863 155.919C115.144 155.919 116.134 155.552 116.831 154.818C117.528 154.084 117.876 152.945 117.876 151.402V143.973H119.22V151.458C119.22 153.337 118.744 154.756 117.792 155.714C116.84 156.672 115.53 157.151 113.863 157.151Z" fill="white"/>
<path d="M123.402 157.039L123.383 143.973H124.746L124.764 155.844H132.063L132.082 157.039H123.402Z" fill="white"/>
<path d="M135.722 157.039L135.703 145.167H131.111V143.973H141.676V145.167H137.066L137.084 157.039H135.722Z" fill="white"/>
<path d="M143.879 157.039V143.973H145.26V157.039H143.879Z" fill="white"/>
<path d="M149.516 157.039V143.973H150.655L156.628 154.164H156.031L161.948 143.973H163.087V157.039H161.762V146.045H162.079L156.628 155.378H155.975L150.487 146.045H150.841V157.039H149.516Z" fill="white"/>
<path d="M165.252 157.039L171.225 143.973H172.588L178.561 157.039H177.105L171.617 144.775H172.177L166.689 157.039H165.252ZM167.604 153.548L168.014 152.429H175.612L176.022 153.548H167.604Z" fill="white"/>
<path d="M180.726 157.039V143.973H185.617C186.725 143.973 187.677 144.15 188.473 144.504C189.27 144.859 189.883 145.37 190.312 146.035C190.741 146.701 190.956 147.507 190.956 148.452C190.956 149.374 190.741 150.167 190.312 150.832C189.883 151.498 189.27 152.009 188.473 152.363C187.677 152.718 186.725 152.895 185.617 152.895H181.492L182.108 152.26V157.039H180.726ZM189.649 157.039L186.289 152.298H187.782L191.161 157.039H189.649ZM182.108 152.373L181.492 151.719H185.58C186.887 151.719 187.879 151.433 188.557 150.86C189.235 150.288 189.575 149.485 189.575 148.452C189.575 147.407 189.235 146.598 188.557 146.026C187.879 145.453 186.887 145.167 185.58 145.167H181.492L182.108 144.514V152.373Z" fill="white"/>
<path d="M199.897 157.151C198.914 157.151 198.006 156.986 197.172 156.657C196.338 156.327 195.616 155.863 195.007 155.266C194.397 154.669 193.921 153.965 193.578 153.156C193.236 152.348 193.065 151.464 193.065 150.506C193.065 149.548 193.236 148.664 193.578 147.855C193.921 147.046 194.4 146.343 195.016 145.746C195.632 145.148 196.357 144.685 197.19 144.355C198.024 144.025 198.933 143.86 199.916 143.86C200.861 143.86 201.752 144.019 202.585 144.337C203.419 144.654 204.122 145.13 204.695 145.764L203.817 146.642C203.282 146.094 202.691 145.699 202.044 145.456C201.397 145.214 200.7 145.092 199.953 145.092C199.169 145.092 198.441 145.226 197.769 145.494C197.097 145.761 196.512 146.141 196.015 146.633C195.517 147.124 195.128 147.697 194.848 148.35C194.568 149.003 194.428 149.722 194.428 150.506C194.428 151.29 194.568 152.009 194.848 152.662C195.128 153.315 195.517 153.887 196.015 154.379C196.512 154.871 197.097 155.25 197.769 155.518C198.441 155.785 199.169 155.919 199.953 155.919C200.7 155.919 201.397 155.795 202.044 155.546C202.691 155.297 203.282 154.899 203.817 154.351L204.695 155.228C204.122 155.863 203.419 156.342 202.585 156.666C201.752 156.989 200.855 157.151 199.897 157.151Z" fill="white"/>
<path d="M205.217 157.039L211.191 143.973H212.553L218.527 157.039H217.071L211.582 144.775H212.143L206.655 157.039H205.217ZM207.569 153.548L207.98 152.429H215.577L215.988 153.548H207.569Z" fill="white"/>
<path d="M224.295 157.151C223.324 157.151 222.394 156.993 221.504 156.675C220.614 156.358 219.927 155.95 219.441 155.453L219.983 154.389C220.443 154.836 221.062 155.213 221.84 155.518C222.618 155.823 223.436 155.975 224.295 155.975C225.116 155.975 225.785 155.872 226.301 155.667C226.818 155.462 227.197 155.185 227.44 154.836C227.683 154.488 227.804 154.102 227.804 153.679C227.804 153.169 227.658 152.758 227.365 152.447C227.073 152.136 226.69 151.89 226.217 151.71C225.744 151.529 225.222 151.371 224.649 151.234C224.077 151.097 223.505 150.951 222.932 150.795C222.359 150.64 221.834 150.431 221.355 150.17C220.876 149.908 220.49 149.563 220.198 149.134C219.905 148.705 219.759 148.141 219.759 147.444C219.759 146.797 219.93 146.203 220.272 145.662C220.614 145.12 221.14 144.685 221.849 144.355C222.559 144.025 223.467 143.86 224.575 143.86C225.309 143.86 226.037 143.963 226.759 144.168C227.48 144.374 228.103 144.657 228.626 145.018L228.159 146.119C227.599 145.746 227.004 145.472 226.376 145.298C225.748 145.123 225.141 145.037 224.556 145.037C223.772 145.037 223.125 145.142 222.615 145.354C222.104 145.565 221.728 145.848 221.485 146.203C221.243 146.558 221.121 146.959 221.121 147.407C221.121 147.917 221.268 148.328 221.56 148.639C221.853 148.95 222.238 149.193 222.717 149.367C223.197 149.541 223.722 149.697 224.295 149.834C224.867 149.971 225.436 150.12 226.003 150.282C226.569 150.443 227.092 150.652 227.571 150.907C228.05 151.162 228.436 151.501 228.728 151.924C229.02 152.348 229.167 152.901 229.167 153.586C229.167 154.22 228.993 154.808 228.644 155.35C228.296 155.891 227.764 156.327 227.048 156.657C226.332 156.986 225.415 157.151 224.295 157.151Z" fill="white"/>
<path d="M90.7722 157.039V143.973H91.9109L97.8845 154.164H97.2869L103.204 143.973H104.343V157.039H103.018V146.045H103.335L97.8845 155.378H97.231L91.7431 146.045H92.0976V157.039H90.7722Z" stroke="white" stroke-width="0.288" stroke-miterlimit="22.9256"/>
<path d="M113.863 157.151C112.195 157.151 110.882 156.672 109.924 155.714C108.966 154.756 108.487 153.337 108.487 151.458V143.973H109.868V151.402C109.868 152.945 110.217 154.084 110.914 154.818C111.61 155.552 112.594 155.919 113.863 155.919C115.144 155.919 116.134 155.552 116.831 154.818C117.528 154.084 117.876 152.945 117.876 151.402V143.973H119.22V151.458C119.22 153.337 118.744 154.756 117.792 155.714C116.84 156.672 115.53 157.151 113.863 157.151Z" stroke="white" stroke-width="0.288" stroke-miterlimit="22.9256"/>
<path d="M123.402 157.039L123.383 143.973H124.746L124.764 155.844H132.063L132.082 157.039H123.402Z" stroke="white" stroke-width="0.288" stroke-miterlimit="22.9256"/>
<path d="M135.722 157.039L135.703 145.167H131.111V143.973H141.676V145.167H137.066L137.084 157.039H135.722Z" stroke="white" stroke-width="0.288" stroke-miterlimit="22.9256"/>
<path d="M143.879 157.039V143.973H145.26V157.039H143.879Z" stroke="white" stroke-width="0.288" stroke-miterlimit="22.9256"/>
<path d="M149.516 157.039V143.973H150.655L156.628 154.164H156.031L161.948 143.973H163.087V157.039H161.762V146.045H162.079L156.628 155.378H155.975L150.487 146.045H150.841V157.039H149.516Z" stroke="white" stroke-width="0.288" stroke-miterlimit="22.9256"/>
<path d="M165.252 157.039L171.225 143.973H172.588L178.561 157.039H177.105L171.617 144.775H172.177L166.689 157.039H165.252ZM167.604 153.548L168.014 152.429H175.612L176.022 153.548H167.604Z" stroke="white" stroke-width="0.288" stroke-miterlimit="22.9256"/>
<path d="M180.726 157.039V143.973H185.617C186.725 143.973 187.677 144.15 188.473 144.504C189.27 144.859 189.883 145.37 190.312 146.035C190.741 146.701 190.956 147.507 190.956 148.452C190.956 149.374 190.741 150.167 190.312 150.832C189.883 151.498 189.27 152.009 188.473 152.363C187.677 152.718 186.725 152.895 185.617 152.895H181.492L182.108 152.26V157.039H180.726ZM189.649 157.039L186.289 152.298H187.782L191.161 157.039H189.649ZM182.108 152.373L181.492 151.719H185.58C186.887 151.719 187.879 151.433 188.557 150.86C189.235 150.288 189.575 149.485 189.575 148.452C189.575 147.407 189.235 146.598 188.557 146.026C187.879 145.453 186.887 145.167 185.58 145.167H181.492L182.108 144.514V152.373Z" stroke="white" stroke-width="0.288" stroke-miterlimit="22.9256"/>
<path d="M199.897 157.151C198.914 157.151 198.006 156.986 197.172 156.657C196.338 156.327 195.616 155.863 195.007 155.266C194.397 154.669 193.921 153.965 193.578 153.156C193.236 152.348 193.065 151.464 193.065 150.506C193.065 149.548 193.236 148.664 193.578 147.855C193.921 147.046 194.4 146.343 195.016 145.746C195.632 145.148 196.357 144.685 197.19 144.355C198.024 144.025 198.933 143.86 199.916 143.86C200.861 143.86 201.752 144.019 202.585 144.337C203.419 144.654 204.122 145.13 204.695 145.764L203.817 146.642C203.282 146.094 202.691 145.699 202.044 145.456C201.397 145.214 200.7 145.092 199.953 145.092C199.169 145.092 198.441 145.226 197.769 145.494C197.097 145.761 196.512 146.141 196.015 146.633C195.517 147.124 195.128 147.697 194.848 148.35C194.568 149.003 194.428 149.722 194.428 150.506C194.428 151.29 194.568 152.009 194.848 152.662C195.128 153.315 195.517 153.887 196.015 154.379C196.512 154.871 197.097 155.25 197.769 155.518C198.441 155.785 199.169 155.919 199.953 155.919C200.7 155.919 201.397 155.795 202.044 155.546C202.691 155.297 203.282 154.899 203.817 154.351L204.695 155.228C204.122 155.863 203.419 156.342 202.585 156.666C201.752 156.989 200.855 157.151 199.897 157.151Z" stroke="white" stroke-width="0.288" stroke-miterlimit="22.9256"/>
<path d="M205.217 157.039L211.191 143.973H212.553L218.527 157.039H217.071L211.582 144.775H212.143L206.655 157.039H205.217ZM207.569 153.548L207.98 152.429H215.577L215.988 153.548H207.569Z" stroke="white" stroke-width="0.288" stroke-miterlimit="22.9256"/>
<path d="M224.295 157.151C223.324 157.151 222.394 156.993 221.504 156.675C220.614 156.358 219.927 155.95 219.441 155.453L219.983 154.389C220.443 154.836 221.062 155.213 221.84 155.518C222.618 155.823 223.436 155.975 224.295 155.975C225.116 155.975 225.785 155.872 226.301 155.667C226.818 155.462 227.197 155.185 227.44 154.836C227.683 154.488 227.804 154.102 227.804 153.679C227.804 153.169 227.658 152.758 227.365 152.447C227.073 152.136 226.69 151.89 226.217 151.71C225.744 151.529 225.222 151.371 224.649 151.234C224.077 151.097 223.505 150.951 222.932 150.795C222.359 150.64 221.834 150.431 221.355 150.17C220.876 149.908 220.49 149.563 220.198 149.134C219.905 148.705 219.759 148.141 219.759 147.444C219.759 146.797 219.93 146.203 220.272 145.662C220.614 145.12 221.14 144.685 221.849 144.355C222.559 144.025 223.467 143.86 224.575 143.86C225.309 143.86 226.037 143.963 226.759 144.168C227.48 144.374 228.103 144.657 228.626 145.018L228.159 146.119C227.599 145.746 227.004 145.472 226.376 145.298C225.748 145.123 225.141 145.037 224.556 145.037C223.772 145.037 223.125 145.142 222.615 145.354C222.104 145.565 221.728 145.848 221.485 146.203C221.243 146.558 221.121 146.959 221.121 147.407C221.121 147.917 221.268 148.328 221.56 148.639C221.853 148.95 222.238 149.193 222.717 149.367C223.197 149.541 223.722 149.697 224.295 149.834C224.867 149.971 225.436 150.12 226.003 150.282C226.569 150.443 227.092 150.652 227.571 150.907C228.05 151.162 228.436 151.501 228.728 151.924C229.02 152.348 229.167 152.901 229.167 153.586C229.167 154.22 228.993 154.808 228.644 155.35C228.296 155.891 227.764 156.327 227.048 156.657C226.332 156.986 225.415 157.151 224.295 157.151Z" stroke="white" stroke-width="0.288" stroke-miterlimit="22.9256"/>
<path d="M238.932 151.07H311.412" stroke="white" stroke-width="0.96" stroke-miterlimit="22.9256"/>
<path d="M8.8316 151.07H81.312" stroke="white" stroke-width="0.96" stroke-miterlimit="22.9256"/>
<path fill-rule="evenodd" clip-rule="evenodd" d="M7.38934 55.6091C12.3409 55.3464 13.6566 55.7248 15.4919 53.4831C20.3611 47.536 26.2666 44.0895 33.4008 41.3478C24.9653 41.7322 9.60301 51.1909 7.38934 55.6091Z" fill="white"/>
<path fill-rule="evenodd" clip-rule="evenodd" d="M101.525 28.6932C105.465 27.4709 112.201 24.6491 120.488 25.6488C119.895 27.7657 119.113 28.6883 118.063 30.1317C122.671 28.96 125.722 26.0434 126.631 22.2684C116.413 22.0216 110.31 23.6706 101.525 28.6932Z" fill="white"/>
<path fill-rule="evenodd" clip-rule="evenodd" d="M292.393 18.2746L303.354 18.5138L304.973 12.1053C301.627 12.5116 294.043 15.2271 292.393 18.2746Z" fill="white"/>
<path fill-rule="evenodd" clip-rule="evenodd" d="M296.676 36.0115C295.22 35.4382 288.925 35.2628 288.631 34.8803C288.541 34.7635 288.557 34.5458 288.244 34.0254C289.154 33.8663 295.363 32.9444 295.485 32.8639L283.356 32.5801C285.415 37.6794 292.244 36.3233 296.676 36.0115Z" fill="white"/>
<path fill-rule="evenodd" clip-rule="evenodd" d="M200.875 64.1062C182.073 65.002 160.869 65.8176 142.489 67.9213C147.523 67.7403 190.209 67.5195 200.875 64.1062Z" fill="white"/>
<path fill-rule="evenodd" clip-rule="evenodd" d="M301.954 55.0928C300.827 54.6487 295.952 54.513 295.725 54.2171C295.655 54.1268 295.668 53.9582 295.425 53.5549C296.13 53.4321 300.937 52.7181 301.031 52.6558L291.64 52.4362C293.235 56.3843 298.522 55.3343 301.954 55.0928Z" fill="white"/>
<path fill-rule="evenodd" clip-rule="evenodd" d="M200.875 64.1062C182.073 65.002 160.869 65.8176 142.489 67.9213C147.523 67.7403 190.209 67.5195 200.875 64.1062Z" fill="white"/>
<path fill-rule="evenodd" clip-rule="evenodd" d="M180.808 20.3064C175.7 34.3561 164.883 38.2445 166.099 38.3903C168.246 39.5669 177.203 33.5095 180.808 20.3064Z" fill="white"/>
</svg>
