<svg width="53" height="54" viewBox="0 0 53 54" fill="none" xmlns="http://www.w3.org/2000/svg">
<g clip-path="url(#clip0_2_38)">
<path d="M39.217 31.029C39.1138 30.9785 35.2499 29.04 34.5634 28.7882C34.283 28.6856 33.9828 28.5855 33.6634 28.5855C33.1417 28.5855 32.7034 28.8504 32.362 29.3708C31.976 29.9553 30.8076 31.3469 30.4466 31.7626C30.3994 31.8174 30.3351 31.883 30.2965 31.883C30.262 31.883 29.664 31.6321 29.483 31.552C25.3381 29.7176 22.1921 25.3062 21.7607 24.5623C21.6991 24.4554 21.6965 24.4068 21.696 24.4068C21.7111 24.3502 21.8505 24.2078 21.9224 24.1344C22.1329 23.9222 22.3609 23.6426 22.5815 23.3721C22.6859 23.2439 22.7905 23.1156 22.8933 22.9946C23.2133 22.6152 23.3558 22.3206 23.521 21.9795L23.6076 21.8022C24.0109 20.9857 23.6664 20.2967 23.5551 20.0742C23.4637 19.888 21.8323 15.8762 21.6588 15.4547C21.2417 14.4377 20.6905 13.9641 19.9246 13.9641C19.8535 13.9641 19.9246 13.9641 19.6266 13.9769C19.2637 13.9925 17.2874 14.2576 16.4136 14.8188C15.4869 15.4141 13.9193 17.3114 13.9193 20.6482C13.9193 23.6513 15.7898 26.4869 16.5929 27.5653C16.6128 27.5925 16.6495 27.6477 16.7026 27.7269C19.7782 32.3033 23.6122 35.6947 27.4989 37.2767C31.2407 38.7996 33.0126 38.9756 34.0199 38.9756C34.4432 38.9756 34.7822 38.9418 35.0811 38.9118L35.2708 38.8934C36.5634 38.7766 39.4041 37.2769 40.0502 35.4474C40.5592 34.0064 40.6934 32.432 40.3548 31.8606C40.1228 31.4721 39.7231 31.2766 39.217 31.029Z" fill="white"/>
<path d="M26.9703 0C12.6163 0 0.938467 11.8088 0.938467 26.3238C0.938467 31.0184 2.17157 35.6139 4.50751 39.6358L0.0364403 53.0736C-0.0468449 53.3241 0.0151028 53.6011 0.196988 53.7898C0.328283 53.9264 0.506382 54 0.688268 54C0.757959 54 0.828166 53.9893 0.896653 53.967L14.649 49.5145C18.4124 51.5632 22.6658 52.6446 26.9704 52.6446C41.323 52.6447 52.9996 40.8372 52.9996 26.3238C52.9996 11.8088 41.323 0 26.9703 0ZM26.9703 47.1613C22.9197 47.1613 18.9966 45.9696 15.6242 43.7149C15.5108 43.639 15.3792 43.6001 15.2467 43.6001C15.1766 43.6001 15.1064 43.611 15.0381 43.6331L8.149 45.8642L10.3729 39.1793C10.4449 38.9629 10.4089 38.7243 10.2764 38.5399C7.70832 34.9647 6.3508 30.7406 6.3508 26.3238C6.3508 14.8325 15.6006 5.48345 26.9701 5.48345C38.3382 5.48345 47.587 14.8325 47.587 26.3238C47.5871 37.8137 38.3385 47.1613 26.9703 47.1613Z" fill="white"/>
</g>
<defs>
<clipPath id="clip0_2_38">
<rect width="53" height="54" fill="white"/>
</clipPath>
</defs>
</svg>
