<svg width="61" height="62" viewBox="0 0 61 62" fill="none" xmlns="http://www.w3.org/2000/svg">
<path d="M40.4333 12.6135C45.5175 12.6135 49.6539 16.7773 49.6539 21.8951C49.6539 22.6061 49.0813 23.1824 48.3751 23.1824C47.6689 23.1824 47.0964 22.6061 47.0964 21.8951C47.0964 18.1968 44.1074 15.188 40.4333 15.188C39.7271 15.188 39.1546 14.6117 39.1546 13.9007C39.1546 13.1898 39.7271 12.6135 40.4333 12.6135Z" fill="#909090"/>
<path d="M17.9119 36.4786C15.6004 32.8306 14.2609 28.5025 14.2609 23.8643C14.2609 10.8918 24.7434 0.339966 37.6304 0.339966C42.2383 0.339966 46.538 1.68838 50.1619 4.01519C53.0493 5.8682 55.5064 8.34161 57.3473 11.2481C59.6588 14.8961 61 19.2258 61 23.8643C61 36.835 50.5159 47.3884 37.6304 47.3884C33.0226 47.3884 28.7212 46.0383 25.0972 43.7115C22.2099 41.8585 19.7528 39.3851 17.9119 36.4786ZM30.0523 38.7237C32.3249 39.9034 34.9022 40.5699 37.6304 40.5699C46.7801 40.5699 54.2263 33.0745 54.2263 23.8643C54.2263 21.1181 53.5641 18.5236 52.3922 16.236C50.8055 13.1369 48.2839 10.6003 45.2053 9.00478C42.9327 7.82514 40.357 7.1586 37.6306 7.1586C28.4791 7.1586 21.0347 14.6523 21.0347 23.8643C21.0347 26.6088 21.6969 29.2016 22.8688 31.4892C24.4537 34.5882 26.9737 37.1265 30.0523 38.7237Z" fill="#909090"/>
<path d="M1.48732 52.9764L14.9789 39.4295C16.8994 42.2524 19.3599 44.7275 22.1642 46.6623L8.67257 60.2092C7.68025 61.2081 6.37959 61.7076 5.08072 61.7076C3.78018 61.7076 2.47952 61.2081 1.4872 60.2092C-0.495775 58.2113 -0.495775 54.9742 1.48732 52.9764Z" fill="#909090"/>
</svg>
