<svg width="126" height="128" viewBox="0 0 126 128" fill="none" xmlns="http://www.w3.org/2000/svg">
<path d="M6 22.0417C6 76.9709 49.6616 121.5 103.521 121.5C105.951 121.5 108.36 121.41 110.746 121.231C113.483 121.026 114.851 120.924 116.098 120.193C117.13 119.587 118.108 118.513 118.625 117.419C119.25 116.098 119.25 114.558 119.25 111.477V93.3995C119.25 90.8084 119.25 89.5129 118.832 88.4028C118.463 87.4217 117.863 86.5484 117.085 85.8593C116.205 85.079 115.011 84.6362 112.624 83.7507L92.4475 76.2683C89.6697 75.2384 88.2805 74.7231 86.9631 74.8104C85.801 74.8874 84.683 75.2923 83.7329 75.9789C82.6558 76.7572 81.8957 78.0495 80.3751 80.6348L75.2083 89.4167C58.536 81.716 45.0203 67.9138 37.4583 50.9167L46.0693 45.6474C48.6037 44.0966 49.8709 43.3211 50.6343 42.2225C51.3075 41.2537 51.7046 40.1134 51.7801 38.9284C51.8656 37.5846 51.3604 36.1681 50.3506 33.3353L43.0138 12.7581C42.1456 10.3233 41.7116 9.10586 40.9466 8.20797C40.2708 7.41481 39.4143 6.80305 38.4525 6.42639C37.3637 6 36.0935 6 33.5532 6H15.8276C12.8068 6 11.2964 6 10.0014 6.63685C8.92877 7.16437 7.8758 8.16248 7.28161 9.21494C6.56424 10.4857 6.46401 11.8816 6.26356 14.6736C6.0889 17.1064 6 19.5634 6 22.0417Z" stroke="#2A2A2A" stroke-width="11.67" stroke-linecap="round" stroke-linejoin="round"/>
</svg>
