<svg width="119" height="136" viewBox="0 0 119 136" fill="none" xmlns="http://www.w3.org/2000/svg">
<path d="M89.8125 34.3125H109.14C110.309 34.3137 111.436 34.7573 112.303 35.5575C113.17 36.3577 113.714 37.4575 113.831 38.6437L116.709 68H107.215L104.856 43.9375H89.8125V58.375C89.8125 59.6514 89.3153 60.8754 88.4304 61.778C87.5455 62.6805 86.3452 63.1875 85.0937 63.1875C83.8423 63.1875 82.642 62.6805 81.7571 61.778C80.8721 60.8754 80.375 59.6514 80.375 58.375V43.9375H42.625V58.375C42.625 59.6514 42.1278 60.8754 41.2429 61.778C40.358 62.6805 39.1577 63.1875 37.9062 63.1875C36.6548 63.1875 35.4545 62.6805 34.5696 61.778C33.6847 60.8754 33.1875 59.6514 33.1875 58.375V43.9375H18.1347L10.5847 120.938H61.5V130.562H5.36575C4.70667 130.562 4.05504 130.42 3.45283 130.147C2.85063 129.874 2.31121 129.475 1.86933 128.977C1.42744 128.478 1.0929 127.89 0.887251 127.252C0.6816 126.613 0.609403 125.938 0.675311 125.269L9.16906 38.6437C9.28596 37.4575 9.83044 36.3577 10.697 35.5575C11.5636 34.7573 12.6905 34.3137 13.8595 34.3125H33.1875V30.9534C33.1875 14.2636 45.796 0.625 61.5 0.625C77.204 0.625 89.8125 14.2636 89.8125 30.9534V34.3221V34.3125ZM80.375 34.3125V30.9534C80.375 19.4611 71.8624 10.25 61.5 10.25C51.1376 10.25 42.625 19.4611 42.625 30.9534V34.3221H80.375V34.3125ZM110.075 107.078L99.25 96.0472V130.562C99.25 131.839 98.7528 133.063 97.8679 133.965C96.983 134.868 95.7827 135.375 94.5312 135.375C93.2798 135.375 92.0795 134.868 91.1946 133.965C90.3096 133.063 89.8125 131.839 89.8125 130.562V96.0472L78.9971 107.078C78.5618 107.537 78.0411 107.904 77.4654 108.156C76.8897 108.408 76.2705 108.541 75.644 108.547C75.0174 108.552 74.3961 108.43 73.8162 108.188C73.2362 107.946 72.7094 107.589 72.2663 107.137C71.8233 106.685 71.4729 106.148 71.2356 105.557C70.9984 104.965 70.879 104.331 70.8844 103.692C70.8899 103.053 71.02 102.422 71.2673 101.835C71.5146 101.248 71.8741 100.717 72.3248 100.273L91.1998 81.0226C92.0847 80.1204 93.2847 79.6136 94.536 79.6136C95.7872 79.6136 96.9872 80.1204 97.8721 81.0226L116.747 100.273C117.198 100.717 117.557 101.248 117.805 101.835C118.052 102.422 118.182 103.053 118.188 103.692C118.193 104.331 118.074 104.965 117.836 105.557C117.599 106.148 117.249 106.685 116.806 107.137C116.363 107.589 115.836 107.946 115.256 108.188C114.676 108.43 114.054 108.552 113.428 108.547C112.801 108.541 112.182 108.408 111.606 108.156C111.031 107.904 110.51 107.537 110.075 107.078Z" fill="#2A2A2A"/>
</svg>
