<svg width="151" height="150" viewBox="0 0 151 150" fill="none" xmlns="http://www.w3.org/2000/svg">
<path d="M111.731 86.1919C111.437 86.0517 100.429 80.6669 98.4731 79.9675C97.6742 79.6825 96.8189 79.4044 95.9089 79.4044C94.4226 79.4044 93.1738 80.1403 92.2012 81.5858C91.1014 83.2094 87.7726 87.075 86.7441 88.2297C86.6096 88.3819 86.4264 88.5642 86.3164 88.5642C86.2181 88.5642 84.5144 87.8672 83.9987 87.6447C72.1897 82.5491 63.2265 70.2953 61.9975 68.2289C61.822 67.9319 61.8145 67.7969 61.8131 67.7969C61.8561 67.6397 62.2533 67.2442 62.4581 67.0403C63.0579 66.4508 63.7075 65.6742 64.336 64.9228C64.6334 64.5667 64.9314 64.2103 65.2243 63.8742C66.136 62.8203 66.542 62.0019 67.0126 61.0544L67.2594 60.5619C68.4084 58.2939 67.4269 56.38 67.1098 55.7619C66.8494 55.2447 62.2014 44.1008 61.7071 42.93C60.5188 40.105 58.9484 38.7894 56.7663 38.7894C56.5637 38.7894 56.7663 38.7894 55.9173 38.825C54.8834 38.8683 49.2528 39.6047 46.7633 41.1636C44.123 42.8172 39.6569 48.0875 39.6569 57.3564C39.6569 65.6983 44.986 73.575 47.2741 76.5705C47.3308 76.6461 47.4354 76.7994 47.5866 77.0194C56.3492 89.7317 67.2725 99.1522 78.3459 103.547C89.0065 107.777 94.0548 108.266 96.9246 108.266C98.1306 108.266 99.0964 108.172 99.948 108.089L100.488 108.037C104.171 107.713 112.264 103.547 114.105 98.4653C115.555 94.4625 115.938 90.0892 114.973 88.5019C114.312 87.4228 113.173 86.8797 111.731 86.1919Z" fill="#BA0000"/>
<path d="M76.8399 0C35.9446 0 2.67375 32.8022 2.67375 73.1217C2.67375 86.1622 6.18693 98.9275 12.8422 110.099L0.103821 147.427C-0.133464 148.122 0.0430288 148.892 0.56123 149.416C0.935297 149.796 1.44271 150 1.96091 150C2.15947 150 2.35949 149.97 2.55462 149.908L41.7358 137.54C52.458 143.231 64.5761 146.235 76.8402 146.235C117.732 146.235 150.999 113.437 150.999 73.1217C150.999 32.8022 117.732 0 76.8399 0ZM76.8399 131.004C65.2995 131.004 54.1224 127.693 44.5142 121.43C44.1911 121.219 43.8162 121.111 43.4387 121.111C43.239 121.111 43.039 121.142 42.8444 121.203L23.217 127.401L29.553 108.831C29.7581 108.23 29.6555 107.568 29.278 107.055C21.9614 97.1242 18.0938 85.3905 18.0938 73.1217C18.0938 41.2014 44.447 15.2318 76.8393 15.2318C109.228 15.2318 135.578 41.2014 135.578 73.1217C135.578 105.038 109.229 131.004 76.8399 131.004Z" fill="#BA0000"/>
</svg>
